<?xml version="1.0" encoding="UTF-8" standalone="no"?>
<!-- Created with Inkscape (http://www.inkscape.org/) -->

<svg
   xmlns:dc="http://purl.org/dc/elements/1.1/"
   xmlns:cc="http://creativecommons.org/ns#"
   xmlns:rdf="http://www.w3.org/1999/02/22-rdf-syntax-ns#"
   xmlns:svg="http://www.w3.org/2000/svg"
   xmlns="http://www.w3.org/2000/svg"
   xmlns:sodipodi="http://sodipodi.sourceforge.net/DTD/sodipodi-0.dtd"
   xmlns:inkscape="http://www.inkscape.org/namespaces/inkscape"
   version="1.1"
   id="svg2"
   xml:space="preserve"
   width="700"
   height="700"
   viewBox="0 0 700 700"
   sodipodi:docname="zaildjan-logo.svg"
   inkscape:version="0.92.4 (5da689c313, 2019-01-14)"
   inkscape:export-filename="G:\Users\suitedoalex\sites\zildjian-logo-0.png"
   inkscape:export-xdpi="561.73999"
   inkscape:export-ydpi="561.73999"><metadata
     id="metadata8"><rdf:RDF><cc:Work
         rdf:about=""><dc:format>image/svg+xml</dc:format><dc:type
           rdf:resource="http://purl.org/dc/dcmitype/StillImage" /><dc:title></dc:title></cc:Work></rdf:RDF></metadata><defs
     id="defs6"><clipPath
       clipPathUnits="userSpaceOnUse"
       id="clipPath18"><path
         d="M 0,0 H 576 V 720 H 0 Z"
         id="path16"
         inkscape:connector-curvature="0" /></clipPath><clipPath
       clipPathUnits="userSpaceOnUse"
       id="clipPath40"><path
         d="M 0,0 H 576 V 720 H 0 Z"
         id="path38"
         inkscape:connector-curvature="0" /></clipPath><clipPath
       clipPathUnits="userSpaceOnUse"
       id="clipPath40-7"><path
         d="M 0,0 H 576 V 720 H 0 Z"
         id="path38-2"
         inkscape:connector-curvature="0" /></clipPath></defs><sodipodi:namedview
     pagecolor="#ffffff"
     bordercolor="#666666"
     borderopacity="1"
     objecttolerance="10"
     gridtolerance="10"
     guidetolerance="10"
     inkscape:pageopacity="0"
     inkscape:pageshadow="2"
     inkscape:window-width="1600"
     inkscape:window-height="837"
     id="namedview4"
     showgrid="false"
     inkscape:zoom="0.49166667"
     inkscape:cx="123.3254"
     inkscape:cy="234.56012"
     inkscape:window-x="-8"
     inkscape:window-y="-8"
     inkscape:window-maximized="1"
     inkscape:current-layer="g10" /><g
     id="g10"
     inkscape:groupmode="layer"
     inkscape:label="Zildjian_Product_Guide_2020_-_Low_Res"
     transform="matrix(1.3333333,0,0,-1.3333333,0,700)"><g
       id="g34"
       transform="matrix(3.3079046,0,0,3.3079046,-1318.4133,-1918.2983)"
       inkscape:export-filename="G:\Users\suitedoalex\sites\zildjian-logo-5.png"
       inkscape:export-xdpi="256.07169"
       inkscape:export-ydpi="256.07169"><g
         id="g36"
         clip-path="url(#clipPath40)"><g
           id="g42"
           transform="translate(435.696,668.4719)"><path
             d="M 0,0 C -3.731,0.587 -7.967,1.276 -14.475,-1.825 -10.522,2.372 -5.717,4.83 -1.46,5.108 3.812,5.453 6.873,2.006 18.916,3.222 14.111,-4.684 -1.399,-12.591 -6.142,-15.815 c 11.738,1.156 21.652,-8.575 25.423,-2.068 0.182,2.237 0.946,5.874 -0.351,6.551 -0.379,0.018 -0.927,-0.225 -2.082,-0.468 -0.791,0.304 5.899,5.596 7.116,3.527 0.669,-4.744 -1.217,-9.974 0.304,-10.156 1.095,-0.427 1.946,-0.427 3.346,0.364 -0.123,2.189 0.364,9.914 0.607,12.773 -0.182,1.398 -1.946,0.911 -3.041,0.669 -1.337,0.121 6.812,6.69 7.421,2.858 -0.071,-2.324 -0.555,-7.788 -0.792,-11.921 -0.171,-3.005 -0.425,-5.231 0.427,-5.352 0.608,-0.426 1.52,0.304 2.067,0.67 -0.303,3.891 1.764,8.27 6.751,9.609 -0.686,0.447 -5.726,5.387 -8.575,11.009 -2.953,5.823 -2.92,12.894 4.318,14.718 -4.501,-4.927 -1.709,-11.25 3.589,-17.637 3.178,-3.834 6.204,-6.326 8.88,-11.435 2.371,4.44 4.257,5.352 5.229,5.352 0,-1.642 -0.121,-3.041 -0.121,-3.041 2.919,1.094 6.509,4.258 6.63,-0.121 -0.06,-2.858 -2.129,-9.975 1.703,-9.003 0.425,3.832 3.528,6.266 4.926,6.205 0.183,0.243 -1.093,2.919 -4.562,1.946 -0.91,0.304 2.677,3.405 5.171,3.649 2.585,-0.153 4.022,-3.246 5.717,-6.143 1.696,-2.897 3.405,-5.657 5.839,-4.623 0.425,2.129 0.851,7.603 -2.919,7.847 -0.913,0 2.554,2.859 4.987,3.041 2.372,-0.122 2.492,-2.129 2.676,-2.495 3.102,2.495 5.473,2.798 6.387,2.798 3.593,0.029 3.77,-3.406 5.169,-6.933 1.363,-3.435 2.859,-6.447 7.116,-4.379 1.277,-0.122 -3.588,-4.258 -6.204,-4.197 -2.615,0.062 -4.197,1.277 -6.02,5.535 -1.826,4.257 -1.648,5.124 -3.102,4.987 -4.562,-0.182 -0.974,-10.644 -8.515,-11.13 -0.487,-0.061 0.304,1.156 0.364,2.433 -0.974,-1.277 -4.622,-3.345 -7.542,0.366 -2.858,-1.887 -7.115,-3.346 -8.94,-0.974 -3.224,-1.764 -5.048,-1.278 -6.326,0 -2.007,2.007 -0.121,6.752 -0.548,9.427 -0.608,0.852 -1.764,0.365 -2.249,0.183 -0.085,-6.612 -1.278,-12.12 -3.285,-16.179 -2.351,-4.752 -6.082,-7.906 -11.799,-7.785 -2.373,-0.426 -3.041,3.041 -1.703,3.346 1.082,0.127 1.763,-0.122 2.798,-0.245 7.481,-0.304 9.73,7.786 8.819,16.24 -3.467,-6.629 -11.739,-7.541 -13.807,-4.257 -1.885,-1.46 -3.061,-2.012 -4.379,-1.885 -1.277,0.121 -1.947,0.668 -3.041,2.129 -2.129,-2.069 -6.143,-3.225 -7.968,-0.123 -4.987,-6.021 -9.609,-3.65 -14.415,-2.859 -6.629,1.157 -16.968,3.954 -24.328,0.913 2.289,6.106 9.032,9.5 15.996,12.834 4.805,2.493 9.062,4.195 12.833,7.846 C 6.468,-1.111 3.386,-0.534 0,0 m 20.984,-7.056 c 5.352,2.493 4.318,9.975 3.224,9.001 -0.548,-0.243 -4.38,-3.223 -4.38,-3.223 1.217,-0.73 2.555,-2.433 1.156,-5.778 m 29.011,-0.548 c 6.995,1.582 4.197,8.819 3.224,8.759 -0.547,-0.244 -4.257,-2.92 -4.257,-2.92 1.215,-0.73 2.796,-2.432 1.033,-5.839 m 6.509,-0.121 c 6.021,2.069 4.5,10.097 3.406,9.124 -0.547,-0.244 -4.562,-3.285 -4.562,-3.285 1.217,-0.73 2.555,-2.495 1.156,-5.839 M 42.88,-10.644 c -3.65,-0.852 -5.11,-7.299 -1.826,-7.603 3.042,0.243 6.446,2.797 1.826,7.603 m 25.848,-3.954 c -4.622,-2.25 -0.122,-5.717 2.069,-3.467 -0.426,0.913 -1.217,2.798 -2.069,3.467"
             style="fill:#c99c41;fill-opacity:1;fill-rule:nonzero;stroke:none"
             id="path44"
             inkscape:connector-curvature="0" /></g><g
           id="g46"
           transform="translate(537.8199,653.0505)"><path
             d="m 0,0 c 0.191,-0.102 0.338,-0.249 0.445,-0.438 0.106,-0.191 0.159,-0.389 0.159,-0.594 0,-0.206 -0.053,-0.402 -0.157,-0.59 -0.104,-0.188 -0.25,-0.334 -0.438,-0.439 -0.189,-0.105 -0.386,-0.157 -0.59,-0.157 -0.204,0 -0.401,0.052 -0.59,0.157 -0.188,0.105 -0.335,0.251 -0.44,0.439 -0.105,0.188 -0.157,0.384 -0.157,0.59 0,0.205 0.053,0.403 0.16,0.594 0.107,0.189 0.255,0.336 0.443,0.438 0.19,0.103 0.383,0.154 0.584,0.154 C -0.383,0.154 -0.189,0.103 0,0 m -1.28,0.206 c -0.228,-0.123 -0.405,-0.297 -0.534,-0.526 -0.126,-0.228 -0.19,-0.465 -0.19,-0.712 0,-0.246 0.063,-0.481 0.189,-0.707 0.125,-0.226 0.301,-0.402 0.525,-0.527 0.227,-0.125 0.462,-0.188 0.709,-0.188 0.246,0 0.482,0.063 0.707,0.188 0.224,0.125 0.4,0.301 0.526,0.527 0.125,0.226 0.187,0.461 0.187,0.707 0,0.247 -0.063,0.484 -0.19,0.712 C 0.522,-0.091 0.345,0.083 0.118,0.206 -0.11,0.328 -0.342,0.39 -0.581,0.39 -0.82,0.39 -1.053,0.328 -1.28,0.206 m 0.324,-2.028 v 0.652 h 0.145 c 0.087,10e-4 0.153,-0.017 0.198,-0.052 0.064,-0.049 0.151,-0.168 0.259,-0.357 l 0.136,-0.243 h 0.3 l -0.186,0.301 c -0.09,0.143 -0.166,0.245 -0.227,0.305 -0.032,0.032 -0.076,0.059 -0.13,0.081 0.133,0.01 0.238,0.057 0.318,0.14 0.08,0.084 0.12,0.181 0.12,0.292 0,0.079 -0.024,0.155 -0.072,0.225 -0.048,0.071 -0.112,0.121 -0.193,0.147 -0.08,0.029 -0.211,0.044 -0.392,0.044 h -0.527 v -1.535 z m 0,1.324 h 0.284 c 0.121,0 0.205,-0.008 0.25,-0.027 0.045,-0.017 0.08,-0.044 0.105,-0.079 0.026,-0.036 0.038,-0.076 0.038,-0.122 0,-0.07 -0.026,-0.127 -0.079,-0.169 -0.052,-0.042 -0.15,-0.064 -0.295,-0.064 h -0.303 z"
             style="fill:#c99c41;fill-opacity:1;fill-rule:nonzero;stroke:none"
             id="path48"
             inkscape:connector-curvature="0" /></g></g></g><g
       id="g34-2"
       transform="matrix(3.3079046,0,0,3.3079046,-1324.6422,-2315.0356)"
       style="fill:#000000"
       inkscape:export-filename="G:\Users\suitedoalex\sites\zildjian-logo-4.png"
       inkscape:export-xdpi="256.07166"
       inkscape:export-ydpi="256.07166"><g
         id="g36-1"
         clip-path="url(#clipPath40-7)"
         style="fill:#000000"><g
           id="g42-7"
           transform="translate(435.696,668.4719)"
           style="fill:#000000"><path
             d="M 0,0 C -3.731,0.587 -7.967,1.276 -14.475,-1.825 -10.522,2.372 -5.717,4.83 -1.46,5.108 3.812,5.453 6.873,2.006 18.916,3.222 14.111,-4.684 -1.399,-12.591 -6.142,-15.815 c 11.738,1.156 21.652,-8.575 25.423,-2.068 0.182,2.237 0.946,5.874 -0.351,6.551 -0.379,0.018 -0.927,-0.225 -2.082,-0.468 -0.791,0.304 5.899,5.596 7.116,3.527 0.669,-4.744 -1.217,-9.974 0.304,-10.156 1.095,-0.427 1.946,-0.427 3.346,0.364 -0.123,2.189 0.364,9.914 0.607,12.773 -0.182,1.398 -1.946,0.911 -3.041,0.669 -1.337,0.121 6.812,6.69 7.421,2.858 -0.071,-2.324 -0.555,-7.788 -0.792,-11.921 -0.171,-3.005 -0.425,-5.231 0.427,-5.352 0.608,-0.426 1.52,0.304 2.067,0.67 -0.303,3.891 1.764,8.27 6.751,9.609 -0.686,0.447 -5.726,5.387 -8.575,11.009 -2.953,5.823 -2.92,12.894 4.318,14.718 -4.501,-4.927 -1.709,-11.25 3.589,-17.637 3.178,-3.834 6.204,-6.326 8.88,-11.435 2.371,4.44 4.257,5.352 5.229,5.352 0,-1.642 -0.121,-3.041 -0.121,-3.041 2.919,1.094 6.509,4.258 6.63,-0.121 -0.06,-2.858 -2.129,-9.975 1.703,-9.003 0.425,3.832 3.528,6.266 4.926,6.205 0.183,0.243 -1.093,2.919 -4.562,1.946 -0.91,0.304 2.677,3.405 5.171,3.649 2.585,-0.153 4.022,-3.246 5.717,-6.143 1.696,-2.897 3.405,-5.657 5.839,-4.623 0.425,2.129 0.851,7.603 -2.919,7.847 -0.913,0 2.554,2.859 4.987,3.041 2.372,-0.122 2.492,-2.129 2.676,-2.495 3.102,2.495 5.473,2.798 6.387,2.798 3.593,0.029 3.77,-3.406 5.169,-6.933 1.363,-3.435 2.859,-6.447 7.116,-4.379 1.277,-0.122 -3.588,-4.258 -6.204,-4.197 -2.615,0.062 -4.197,1.277 -6.02,5.535 -1.826,4.257 -1.648,5.124 -3.102,4.987 -4.562,-0.182 -0.974,-10.644 -8.515,-11.13 -0.487,-0.061 0.304,1.156 0.364,2.433 -0.974,-1.277 -4.622,-3.345 -7.542,0.366 -2.858,-1.887 -7.115,-3.346 -8.94,-0.974 -3.224,-1.764 -5.048,-1.278 -6.326,0 -2.007,2.007 -0.121,6.752 -0.548,9.427 -0.608,0.852 -1.764,0.365 -2.249,0.183 -0.085,-6.612 -1.278,-12.12 -3.285,-16.179 -2.351,-4.752 -6.082,-7.906 -11.799,-7.785 -2.373,-0.426 -3.041,3.041 -1.703,3.346 1.082,0.127 1.763,-0.122 2.798,-0.245 7.481,-0.304 9.73,7.786 8.819,16.24 -3.467,-6.629 -11.739,-7.541 -13.807,-4.257 -1.885,-1.46 -3.061,-2.012 -4.379,-1.885 -1.277,0.121 -1.947,0.668 -3.041,2.129 -2.129,-2.069 -6.143,-3.225 -7.968,-0.123 -4.987,-6.021 -9.609,-3.65 -14.415,-2.859 -6.629,1.157 -16.968,3.954 -24.328,0.913 2.289,6.106 9.032,9.5 15.996,12.834 4.805,2.493 9.062,4.195 12.833,7.846 C 6.468,-1.111 3.386,-0.534 0,0 m 20.984,-7.056 c 5.352,2.493 4.318,9.975 3.224,9.001 -0.548,-0.243 -4.38,-3.223 -4.38,-3.223 1.217,-0.73 2.555,-2.433 1.156,-5.778 m 29.011,-0.548 c 6.995,1.582 4.197,8.819 3.224,8.759 -0.547,-0.244 -4.257,-2.92 -4.257,-2.92 1.215,-0.73 2.796,-2.432 1.033,-5.839 m 6.509,-0.121 c 6.021,2.069 4.5,10.097 3.406,9.124 -0.547,-0.244 -4.562,-3.285 -4.562,-3.285 1.217,-0.73 2.555,-2.495 1.156,-5.839 M 42.88,-10.644 c -3.65,-0.852 -5.11,-7.299 -1.826,-7.603 3.042,0.243 6.446,2.797 1.826,7.603 m 25.848,-3.954 c -4.622,-2.25 -0.122,-5.717 2.069,-3.467 -0.426,0.913 -1.217,2.798 -2.069,3.467"
             style="fill:#000000;fill-opacity:1;fill-rule:nonzero;stroke:none"
             id="path44-7"
             inkscape:connector-curvature="0" /></g><g
           id="g46-3"
           transform="translate(537.8199,653.0505)"
           style="fill:#000000"><path
             d="m 0,0 c 0.191,-0.102 0.338,-0.249 0.445,-0.438 0.106,-0.191 0.159,-0.389 0.159,-0.594 0,-0.206 -0.053,-0.402 -0.157,-0.59 -0.104,-0.188 -0.25,-0.334 -0.438,-0.439 -0.189,-0.105 -0.386,-0.157 -0.59,-0.157 -0.204,0 -0.401,0.052 -0.59,0.157 -0.188,0.105 -0.335,0.251 -0.44,0.439 -0.105,0.188 -0.157,0.384 -0.157,0.59 0,0.205 0.053,0.403 0.16,0.594 0.107,0.189 0.255,0.336 0.443,0.438 0.19,0.103 0.383,0.154 0.584,0.154 C -0.383,0.154 -0.189,0.103 0,0 m -1.28,0.206 c -0.228,-0.123 -0.405,-0.297 -0.534,-0.526 -0.126,-0.228 -0.19,-0.465 -0.19,-0.712 0,-0.246 0.063,-0.481 0.189,-0.707 0.125,-0.226 0.301,-0.402 0.525,-0.527 0.227,-0.125 0.462,-0.188 0.709,-0.188 0.246,0 0.482,0.063 0.707,0.188 0.224,0.125 0.4,0.301 0.526,0.527 0.125,0.226 0.187,0.461 0.187,0.707 0,0.247 -0.063,0.484 -0.19,0.712 C 0.522,-0.091 0.345,0.083 0.118,0.206 -0.11,0.328 -0.342,0.39 -0.581,0.39 -0.82,0.39 -1.053,0.328 -1.28,0.206 m 0.324,-2.028 v 0.652 h 0.145 c 0.087,10e-4 0.153,-0.017 0.198,-0.052 0.064,-0.049 0.151,-0.168 0.259,-0.357 l 0.136,-0.243 h 0.3 l -0.186,0.301 c -0.09,0.143 -0.166,0.245 -0.227,0.305 -0.032,0.032 -0.076,0.059 -0.13,0.081 0.133,0.01 0.238,0.057 0.318,0.14 0.08,0.084 0.12,0.181 0.12,0.292 0,0.079 -0.024,0.155 -0.072,0.225 -0.048,0.071 -0.112,0.121 -0.193,0.147 -0.08,0.029 -0.211,0.044 -0.392,0.044 h -0.527 v -1.535 z m 0,1.324 h 0.284 c 0.121,0 0.205,-0.008 0.25,-0.027 0.045,-0.017 0.08,-0.044 0.105,-0.079 0.026,-0.036 0.038,-0.076 0.038,-0.122 0,-0.07 -0.026,-0.127 -0.079,-0.169 -0.052,-0.042 -0.15,-0.064 -0.295,-0.064 h -0.303 z"
             style="fill:#000000;fill-opacity:1;fill-rule:nonzero;stroke:none"
             id="path48-8"
             inkscape:connector-curvature="0" /></g></g></g></g></svg>